<svg width="169" height="23" viewBox="0 0 169 23" fill="none" xmlns="http://www.w3.org/2000/svg">
<path d="M21.5479 22H16.8311L14.9561 17.1221H6.37207L4.59961 22H0L8.36426 0.525391H12.9492L21.5479 22ZM13.5645 13.5039L10.6055 5.53516L7.70508 13.5039H13.5645ZM23.9795 22V0.701172H28.3154V18.3818H39.0967V22H23.9795ZM42.2021 22V0.525391H49.1602C51.7969 0.525391 53.5156 0.632812 54.3164 0.847656C55.5469 1.16992 56.5771 1.87305 57.4072 2.95703C58.2373 4.03125 58.6523 5.42285 58.6523 7.13184C58.6523 8.4502 58.4131 9.55859 57.9346 10.457C57.4561 11.3555 56.8457 12.0635 56.1035 12.5811C55.3711 13.0889 54.624 13.4258 53.8623 13.5918C52.8271 13.7969 51.3281 13.8994 49.3652 13.8994H46.5381V22H42.2021ZM46.5381 4.1582V10.252H48.9111C50.6201 10.252 51.7627 10.1396 52.3389 9.91504C52.915 9.69043 53.3643 9.33887 53.6865 8.86035C54.0186 8.38184 54.1846 7.8252 54.1846 7.19043C54.1846 6.40918 53.9551 5.76465 53.4961 5.25684C53.0371 4.74902 52.4561 4.43164 51.7529 4.30469C51.2354 4.20703 50.1953 4.1582 48.6328 4.1582H46.5381ZM62.2266 22V0.525391H66.5625V8.97754H75.0586V0.525391H79.3945V22H75.0586V12.6104H66.5625V22H62.2266ZM103.257 22H98.54L96.665 17.1221H88.0811L86.3086 22H81.709L90.0732 0.525391H94.6582L103.257 22ZM95.2734 13.5039L92.3145 5.53516L89.4141 13.5039H95.2734ZM119.312 14.1045L123.516 15.4375C122.871 17.7812 121.797 19.5244 120.293 20.667C118.799 21.7998 116.899 22.3662 114.595 22.3662C111.743 22.3662 109.399 21.3945 107.563 19.4512C105.728 17.498 104.81 14.832 104.81 11.4531C104.81 7.87891 105.732 5.10547 107.578 3.13281C109.424 1.15039 111.851 0.15918 114.858 0.15918C117.485 0.15918 119.619 0.935547 121.26 2.48828C122.236 3.40625 122.969 4.72461 123.457 6.44336L119.165 7.46875C118.911 6.35547 118.379 5.47656 117.568 4.83203C116.768 4.1875 115.791 3.86523 114.639 3.86523C113.047 3.86523 111.753 4.43652 110.757 5.5791C109.771 6.72168 109.277 8.57227 109.277 11.1309C109.277 13.8457 109.766 15.7793 110.742 16.9316C111.719 18.084 112.988 18.6602 114.551 18.6602C115.703 18.6602 116.694 18.2939 117.524 17.5615C118.354 16.8291 118.95 15.6768 119.312 14.1045ZM146.616 22H141.899L140.024 17.1221H131.44L129.668 22H125.068L133.433 0.525391H138.018L146.616 22ZM138.633 13.5039L135.674 5.53516L132.773 13.5039H138.633ZM148.945 22V0.525391H158.071C160.366 0.525391 162.031 0.720703 163.066 1.11133C164.111 1.49219 164.946 2.17578 165.571 3.16211C166.196 4.14844 166.509 5.27637 166.509 6.5459C166.509 8.15723 166.035 9.49023 165.088 10.5449C164.141 11.5898 162.725 12.249 160.84 12.5225C161.777 13.0693 162.549 13.6699 163.154 14.3242C163.77 14.9785 164.595 16.1406 165.63 17.8105L168.252 22H163.066L159.932 17.3271C158.818 15.6572 158.057 14.6074 157.646 14.1777C157.236 13.7383 156.802 13.4404 156.343 13.2842C155.884 13.1182 155.156 13.0352 154.16 13.0352H153.281V22H148.945ZM153.281 9.60742H156.489C158.569 9.60742 159.868 9.51953 160.386 9.34375C160.903 9.16797 161.309 8.86523 161.602 8.43555C161.895 8.00586 162.041 7.46875 162.041 6.82422C162.041 6.10156 161.846 5.52051 161.455 5.08105C161.074 4.63184 160.532 4.34863 159.829 4.23145C159.478 4.18262 158.423 4.1582 156.665 4.1582H153.281V9.60742Z" fill="black"/>
</svg>
